# xmcd CD database file
#
# Track frame offsets:
#	150
#	27456
#	60040
#	88417
#	114005
#	136150
#	160471
#	183863
#	211106
#	233445
#	258771
#	282500
#	307603
#
# Disc length: 4406 seconds
#
# Revision: 0
# Processed by: cddbd v1.4PL0 Copyright (c) Steve Scherf et al.
# Submitted via: CDex 1.51
#
DISCID=9a11340d
DTITLE=Mika Nakashima - Love
DYEAR=2003
DGENRE=Jazz
TTITLE0=Venus in the Dark
TTITLE1=Love Addict
TTITLE2=Aroma
TTITLE3=yuki no amai
TTITLE4=resistance (album version)
TTITLE5=Find the way
TTITLE6=Marionette
TTITLE7=eri butsu
TTITLE8=You send me love
TTITLE9=Be in silence
TTITLE10=Love no cry
TTITLE11=ai shiteru
TTITLE12=Last waltz
EXTD=YEAR: 2003
EXTT0=
EXTT1=
EXTT2=
EXTT3=
EXTT4=
EXTT5=
EXTT6=
EXTT7=
EXTT8=
EXTT9=
EXTT10=
EXTT11=
EXTT12=
PLAYORDER=
